<svg width="107" height="75" viewBox="0 0 107 75" fill="none" xmlns="http://www.w3.org/2000/svg">
<path d="M53.584 71V62.6H54.672V64.888L54.56 64.488C54.7947 63.848 55.1893 63.3627 55.744 63.032C56.2987 62.6907 56.9867 62.52 57.808 62.52V63.624C57.7653 63.624 57.7227 63.624 57.68 63.624C57.6373 63.6133 57.5947 63.608 57.552 63.608C56.6667 63.608 55.9733 63.88 55.472 64.424C54.9707 64.9573 54.72 65.72 54.72 66.712V71H53.584ZM64.0409 71V59.128H65.1769V71H64.0409ZM75.9218 71.08C75.1111 71.08 74.3804 70.8987 73.7297 70.536C73.0897 70.1627 72.5831 69.656 72.2097 69.016C71.8364 68.3653 71.6497 67.624 71.6497 66.792C71.6497 65.9493 71.8364 65.208 72.2097 64.568C72.5831 63.928 73.0897 63.4267 73.7297 63.064C74.3697 62.7013 75.1004 62.52 75.9218 62.52C76.7538 62.52 77.4898 62.7013 78.1298 63.064C78.7804 63.4267 79.2871 63.928 79.6497 64.568C80.0231 65.208 80.2098 65.9493 80.2098 66.792C80.2098 67.624 80.0231 68.3653 79.6497 69.016C79.2871 69.656 78.7804 70.1627 78.1298 70.536C77.4791 70.8987 76.7431 71.08 75.9218 71.08ZM75.9218 70.072C76.5297 70.072 77.0684 69.9387 77.5378 69.672C78.0071 69.3947 78.3751 69.0107 78.6417 68.52C78.9191 68.0187 79.0577 67.4427 79.0577 66.792C79.0577 66.1307 78.9191 65.5547 78.6417 65.064C78.3751 64.5733 78.0071 64.1947 77.5378 63.928C77.0684 63.6507 76.5351 63.512 75.9377 63.512C75.3404 63.512 74.8071 63.6507 74.3377 63.928C73.8684 64.1947 73.4951 64.5733 73.2177 65.064C72.9404 65.5547 72.8017 66.1307 72.8017 66.792C72.8017 67.4427 72.9404 68.0187 73.2177 68.52C73.4951 69.0107 73.8684 69.3947 74.3377 69.672C74.8071 69.9387 75.3351 70.072 75.9218 70.072ZM88.6146 71L84.8866 62.6H86.0706L89.4946 70.392H88.9346L92.4066 62.6H93.5266L89.7826 71H88.6146ZM104.3 71V69.144L104.252 68.84V65.736C104.252 65.0213 104.05 64.472 103.644 64.088C103.25 63.704 102.658 63.512 101.868 63.512C101.324 63.512 100.807 63.6027 100.316 63.784C99.8258 63.9653 99.4098 64.2053 99.0685 64.504L98.5565 63.656C98.9832 63.2933 99.4952 63.016 100.092 62.824C100.69 62.6213 101.319 62.52 101.98 62.52C103.068 62.52 103.906 62.792 104.492 63.336C105.09 63.8693 105.388 64.6853 105.388 65.784V71H104.3ZM101.404 71.08C100.775 71.08 100.226 70.9787 99.7565 70.776C99.2978 70.5627 98.9458 70.2747 98.7005 69.912C98.4552 69.5387 98.3325 69.112 98.3325 68.632C98.3325 68.1947 98.4338 67.8 98.6365 67.448C98.8498 67.0853 99.1912 66.7973 99.6605 66.584C100.14 66.36 100.78 66.248 101.58 66.248H104.476V67.096H101.612C100.802 67.096 100.236 67.24 99.9165 67.528C99.6072 67.816 99.4525 68.1733 99.4525 68.6C99.4525 69.08 99.6392 69.464 100.012 69.752C100.386 70.04 100.908 70.184 101.58 70.184C102.22 70.184 102.77 70.04 103.228 69.752C103.698 69.4533 104.039 69.0267 104.252 68.472L104.508 69.256C104.295 69.8107 103.922 70.2533 103.388 70.584C102.866 70.9147 102.204 71.08 101.404 71.08Z" fill="white"/>
<path d="M8.296 46L5.128 37.6H6.216L9.096 45.392H8.6L11.56 37.6H12.536L15.464 45.392H14.968L17.896 37.6H18.936L15.752 46H14.68L11.864 38.672H12.2L9.368 46H8.296ZM28.1401 46.08C27.2655 46.08 26.4975 45.8987 25.8361 45.536C25.1748 45.1627 24.6575 44.656 24.2841 44.016C23.9108 43.3653 23.7241 42.624 23.7241 41.792C23.7241 40.96 23.9001 40.224 24.2521 39.584C24.6148 38.944 25.1055 38.4427 25.7241 38.08C26.3535 37.7067 27.0575 37.52 27.8361 37.52C28.6255 37.52 29.3241 37.7013 29.9321 38.064C30.5508 38.416 31.0361 38.9173 31.3881 39.568C31.7401 40.208 31.9161 40.9493 31.9161 41.792C31.9161 41.8453 31.9108 41.904 31.9001 41.968C31.9001 42.0213 31.9001 42.08 31.9001 42.144H24.5881V41.296H31.2921L30.8441 41.632C30.8441 41.024 30.7108 40.4853 30.4441 40.016C30.1881 39.536 29.8361 39.1627 29.3881 38.896C28.9401 38.6293 28.4228 38.496 27.8361 38.496C27.2601 38.496 26.7428 38.6293 26.2841 38.896C25.8255 39.1627 25.4681 39.536 25.2121 40.016C24.9561 40.496 24.8281 41.0453 24.8281 41.664V41.84C24.8281 42.48 24.9668 43.0453 25.2441 43.536C25.5321 44.016 25.9268 44.3947 26.4281 44.672C26.9401 44.9387 27.5215 45.072 28.1721 45.072C28.6841 45.072 29.1588 44.9813 29.5961 44.8C30.0441 44.6187 30.4281 44.3413 30.7481 43.968L31.3881 44.704C31.0148 45.152 30.5455 45.4933 29.9801 45.728C29.4255 45.9627 28.8121 46.08 28.1401 46.08ZM42.7244 46.08C41.9884 46.08 41.327 45.9147 40.7404 45.584C40.1537 45.2427 39.6897 44.752 39.3484 44.112C39.007 43.472 38.8364 42.6987 38.8364 41.792C38.8364 40.8747 39.007 40.1013 39.3484 39.472C39.7004 38.832 40.1697 38.3467 40.7564 38.016C41.343 37.6853 41.999 37.52 42.7244 37.52C43.5244 37.52 44.239 37.7013 44.8684 38.064C45.5084 38.416 46.0097 38.912 46.3724 39.552C46.735 40.192 46.9164 40.9387 46.9164 41.792C46.9164 42.6347 46.735 43.3813 46.3724 44.032C46.0097 44.672 45.5084 45.1733 44.8684 45.536C44.239 45.8987 43.5244 46.08 42.7244 46.08ZM38.3884 46V34.128H39.5244V40.08L39.3644 41.776L39.4764 43.472V46H38.3884ZM42.6444 45.072C43.2417 45.072 43.775 44.9387 44.2444 44.672C44.7137 44.3947 45.087 44.0107 45.3644 43.52C45.6417 43.0187 45.7804 42.4427 45.7804 41.792C45.7804 41.1307 45.6417 40.5547 45.3644 40.064C45.087 39.5733 44.7137 39.1947 44.2444 38.928C43.775 38.6507 43.2417 38.512 42.6444 38.512C42.047 38.512 41.5084 38.6507 41.0284 38.928C40.559 39.1947 40.1857 39.5733 39.9084 40.064C39.6417 40.5547 39.5084 41.1307 39.5084 41.792C39.5084 42.4427 39.6417 43.0187 39.9084 43.52C40.1857 44.0107 40.559 44.3947 41.0284 44.672C41.5084 44.9387 42.047 45.072 42.6444 45.072Z" fill="white"/>
<path d="M51 37.5C51 47.6774 48.1382 56.8478 43.563 63.4467C38.9851 70.0494 32.7595 74 26 74C19.2405 74 13.0149 70.0494 8.43702 63.4467C3.86179 56.8478 1 47.6774 1 37.5C1 27.3226 3.86179 18.1522 8.43702 11.5533C13.0149 4.95057 19.2405 1 26 1C32.7595 1 38.9851 4.95057 43.563 11.5533C48.1382 18.1522 51 27.3226 51 37.5Z" stroke="white" stroke-width="2"/>
</svg>
